<svg width="126" height="129" viewBox="0 0 126 129" fill="none" xmlns="http://www.w3.org/2000/svg">
<path d="M74.0171 78.8927C70.6462 78.6451 67.2994 77.8961 64.1479 76.6852L62.5834 76.0851L60.4383 76.8402C58.0431 77.6849 56.619 78.051 53.7755 78.557C52.0835 78.8578 51.3126 78.9018 47.6465 78.9064C43.2208 78.911 42.3047 78.8244 39.5015 78.1285C32.1371 76.3038 25.8194 71.9708 21.3711 65.6931C17.6244 60.406 14.7938 51.7505 15.0115 46.2461L15.0664 44.8788L18.2921 44.8879C21.7308 44.8985 23.263 45.0976 26.2355 45.9195C26.9678 46.1216 27.5694 46.278 27.5726 46.2659C27.5758 46.2553 27.6162 45.4941 27.6613 44.5749C27.8968 39.8013 28.7839 35.8587 31.0129 29.6858C31.4951 28.3489 32.2484 26.2644 32.6871 25.052C33.1242 23.8396 33.7209 22.062 34.0096 21.1018C34.8499 18.3094 34.987 17.7882 35.2677 17.7077C35.3515 17.6834 35.4483 17.6986 35.5822 17.7047C36.6628 17.7503 40.3015 20.289 42.3353 22.416C43.5208 23.6542 44.8546 25.3103 45.7756 26.6852C46.0691 27.1243 46.3304 27.4829 46.3578 27.4829C46.3836 27.4829 46.861 26.7825 47.4175 25.9256C47.9739 25.0687 49.5997 22.7275 51.0303 20.722C55.8383 13.9809 58.1593 10.0885 59.906 5.83292C60.6608 3.99761 61.1528 2.49655 61.4334 1.17325C61.6415 0.190265 61.8721 -0.0588999 62.5108 0.0109877C63.0802 0.0732787 63.2156 0.336117 63.9156 2.72597C64.5946 5.04897 65.3398 6.88123 66.6624 9.47923C68.1704 12.4419 69.3639 14.3015 73.2864 19.8104C75.2493 22.5679 77.2106 25.3878 77.6444 26.0775C78.0783 26.7673 78.4767 27.3309 78.5283 27.3309C78.5815 27.3309 79.1251 26.664 79.7364 25.8496C81.3686 23.6725 83.2363 21.6959 84.9782 20.3042C86.6701 18.952 88.4088 17.8323 89.0572 17.6789C89.6088 17.5482 89.8798 17.9417 90.3765 19.6008C91.1184 22.0711 91.962 24.543 92.7297 26.4953C93.87 29.3941 95.27 33.6162 95.9651 36.2507C96.6619 38.8958 97.0216 41.2674 97.1813 44.2452C97.2554 45.6323 97.2796 46.1823 97.5345 46.3024C97.7038 46.3829 97.9748 46.272 98.4296 46.0927C98.7506 45.9666 100.117 45.6567 101.468 45.4045C103.37 45.0489 104.544 44.9259 106.671 44.8575C108.744 44.7922 109.55 44.7572 109.852 45.1067C110.054 45.3406 110.033 45.7417 110.01 46.4178C109.907 49.6873 108.573 55.4667 107.1 59.0188C106.542 60.3665 105.044 63.2835 104.209 64.6478C102.538 67.3765 98.8603 71.2477 96.178 73.1027C93.9861 74.6174 90.0765 76.7004 88.6943 77.0893C88.4717 77.1516 88.0007 77.3233 87.6459 77.4676C85.9943 78.1468 82.7315 78.7773 79.9041 78.9657C77.3815 79.1328 77.288 79.1313 74.0171 78.8927ZM64.6543 72.8809C66.9446 71.7323 69.4994 70.0854 71.7929 68.2805C78.3815 63.0921 82.0041 57.302 82.9637 50.4242C83.904 43.6907 82.0057 36.7186 77.0735 28.7743C76.3461 27.6044 74.1413 24.3577 72.1736 21.5576C70.2042 18.7576 68.2978 16.0228 67.9349 15.4804C66.0495 12.6591 64.1769 9.17233 62.9592 6.21275C62.4302 4.92742 62.4269 4.92286 62.2447 5.37713C61.5382 7.11976 61.0963 8.08148 60.0673 10.1052C58.3544 13.475 56.898 15.763 52.7271 21.6336C44.303 33.4932 41.3224 40.6719 41.6563 48.2972C41.9547 55.096 44.8449 60.8131 50.732 66.2477C54.0061 69.271 56.2254 70.7964 60.7705 73.1498C61.556 73.557 61.9382 73.7849 62.335 73.8076C62.8237 73.8335 63.3334 73.5433 64.6543 72.8809ZM51.5981 76.9389C53.4158 76.7384 55.7512 76.3403 55.8932 76.2066C55.9238 76.1778 55.3141 76.0744 54.54 75.9757C50.4191 75.4515 45.7594 73.8016 42.1982 71.6062C37.4612 68.6861 33.3822 64.3516 31.1613 59.8772C29.4097 56.3479 28.242 52.6393 27.9162 49.5734L27.8081 48.5479L26.7388 48.1361C24.7323 47.3613 20.4421 46.626 17.9357 46.626H16.9212V47.1501C16.9212 48.1893 17.4276 51.2978 17.8921 53.1164C19.5163 59.4579 22.2082 64.4321 26.2646 68.5798C30.7323 73.1483 37.0547 76.1747 43.8562 76.9982C45.5707 77.2063 49.44 77.1759 51.5981 76.9389ZM83.0928 76.7232C92.112 75.0018 99.7264 69.2756 104.025 60.9833C106.189 56.8052 107.725 51.4786 107.923 47.4616L107.968 46.55L106.355 46.6017C103.968 46.6791 98.2312 47.8247 97.3038 48.4111C97.2038 48.4734 96.9635 49.4351 96.7684 50.5473C96.1555 54.0523 95.3555 56.5075 93.8619 59.464C90.7555 65.6141 86.0121 70.2054 79.6541 73.2167C76.8283 74.5552 72.4155 75.8526 70.0171 76.0501C69.3704 76.1033 68.8978 76.196 68.9688 76.2568C69.0736 76.3464 71.2155 76.6852 74.0977 77.0696C74.3639 77.106 76.1058 77.1167 77.9686 77.0954C80.688 77.0635 81.6976 76.9906 83.0928 76.7232ZM40.5402 53.9338C39.7224 51.3434 39.4273 46.6047 39.8934 43.5874C40.5369 39.426 42.0869 35.1021 44.5433 30.6248C45.182 29.4579 45.1901 29.426 44.9353 28.9535C44.0901 27.3811 41.795 24.5096 40.1499 22.9645C38.8547 21.749 36.4935 19.9305 36.3709 20.0535C36.3386 20.0869 36.1531 20.6612 35.9596 21.3297C35.7677 21.9982 34.7096 25.0748 33.6112 28.1665C31.4984 34.1146 30.6887 36.8174 30.1452 39.7405C29.729 41.9891 29.4242 45.4591 29.5661 46.351C29.6645 46.9708 29.7355 47.0544 30.4339 47.3719C33.0145 48.5479 36.8531 51.1626 39.1821 53.3336C40.0224 54.1176 40.7289 54.7527 40.7515 54.7436C40.7724 54.736 40.6773 54.3713 40.5402 53.9338ZM88.1556 51.1808C89.8427 49.9 92.0104 48.5661 93.7313 47.7487C94.7442 47.2701 95.1652 46.9845 95.2313 46.7369C95.3894 46.1428 95.0135 41.1671 94.6668 39.2574C94.4845 38.2547 94.1829 36.9207 93.9958 36.2948C93.0216 33.0328 92.2797 30.8147 91.2733 28.1513C90.6604 26.5303 89.7846 24.0584 89.3281 22.6591C88.8733 21.2598 88.4733 20.0885 88.4394 20.055C88.3427 19.9578 86.2669 21.5956 85.0653 22.7199C83.5234 24.1617 81.6444 26.3738 80.5783 28.0025L79.6912 29.3592L80.1525 30.1295C81.9234 33.0875 83.6444 37.4449 84.5685 41.3084C85.5088 45.2388 85.304 50.6764 84.0653 54.6007C84.0137 54.7679 84.6282 54.2832 85.4314 53.522C86.2346 52.7624 87.4604 51.7095 88.1556 51.1808ZM69.3397 74.3333C72.0494 74.0052 73.63 73.5919 76.688 72.4114C86.6814 68.557 93.0862 60.6187 94.9071 49.8332L95.02 49.1677L94.0748 49.6691C91.1346 51.2309 89.2685 52.5786 86.8137 54.9198C84.7814 56.8554 84.0847 57.656 81.3202 61.2173C76.9412 66.8584 72.98 70.3573 67.4075 73.5099L65.2575 74.7253L66.372 74.6417C66.9833 74.5962 68.3188 74.4579 69.3397 74.3333ZM58.5302 74.1525C51.9932 70.5275 47.9513 66.9708 43.0498 60.5275C39.4789 55.8329 36.116 52.7715 31.5806 50.0854C30.3887 49.3789 30.0548 49.2407 30.0129 49.4336C29.8403 50.2237 30.9387 54.4473 32.029 57.1851C33.8048 61.6427 37.7241 66.3464 42.1627 69.347C46.0094 71.948 52.1271 74.0538 57.3238 74.5658C58.6899 74.6995 59.2721 74.7587 59.3028 74.663C59.3254 74.5916 59.0351 74.4321 58.5302 74.1525Z" fill="#C48851"/>
<path d="M61.1948 61.6594C56.7303 61.0091 52.9191 58.3944 50.9594 54.6387C49.2272 51.3175 49.1191 47.413 50.6659 43.987C52.153 40.6946 54.6852 36.667 58.7013 31.2051C60.0157 29.4169 61.6657 26.4452 62.4093 24.5202C63.1334 22.6485 63.2689 22.5421 63.5157 23.6391C63.8754 25.2298 65.8528 28.8518 67.8124 31.509C71.3446 36.2963 72.8801 38.5631 73.9478 40.5655C74.5446 41.6852 75.0881 42.8049 75.1575 43.0556C75.2268 43.3063 75.4639 43.9216 75.6865 44.423C77.0139 47.416 76.8671 51.3601 75.3107 54.4914C73.9962 57.138 71.4349 59.4974 68.5914 60.6825C66.4802 61.5621 63.356 61.9754 61.1948 61.6594ZM58.1061 56.1595C56.4029 54.0006 55.3045 50.8405 55.2932 48.0693C55.2803 45.0398 55.8384 43.2425 57.4351 41.1565L58.0755 40.3209L56.9545 41.4011C55.0319 43.2531 54.0626 45.3513 53.9078 47.9933C53.7981 49.8849 54.1191 51.31 55.0529 53.083C55.8239 54.5445 56.8287 55.7326 58.0109 56.5834C58.4125 56.8721 58.7674 57.1091 58.798 57.1091C58.8303 57.1091 58.519 56.6822 58.1061 56.1595Z" fill="#EEB006"/>
<path d="M96.6711 127.814C94.4195 126.511 93.9889 122.63 95.576 117.943C95.8002 117.28 96.4792 115.557 97.084 114.114C98.3566 111.082 98.7856 109.86 99.0227 108.593C99.2695 107.269 99.2356 105.661 98.9485 105.135C98.6195 104.531 97.4695 103.912 96.6776 103.913C94.6744 103.918 92.1422 106.339 91.2099 109.142C90.6422 110.848 90.4857 111.981 90.3406 115.41C90.2003 118.727 90.118 119.015 89.2067 119.373C88.5648 119.626 87.7261 119.471 87.2761 119.016C86.9261 118.661 86.9213 118.589 86.7713 110.711C86.689 106.339 86.6181 101.884 86.6164 100.811L86.6116 98.8581H54.6766V107.472L55.1992 107.373C56.2766 107.169 57.5137 106.267 60.0765 103.814C61.4975 102.455 62.9055 101.226 63.2039 101.082C63.8861 100.756 64.7232 100.88 65.2587 101.388C65.549 101.664 65.6442 101.921 65.6442 102.432C65.6442 102.996 65.5232 103.267 64.941 104.01C64.1345 105.037 62.062 106.952 60.3588 108.238C59.7168 108.724 59.1927 109.194 59.1927 109.284C59.1927 109.374 59.5798 109.838 60.0539 110.316C60.5265 110.796 61.7975 112.201 62.8765 113.442C63.9555 114.681 65.4184 116.281 66.128 116.996C66.8377 117.712 67.4183 118.405 67.4183 118.539C67.4183 118.672 67.2409 118.95 67.0232 119.157C66.528 119.626 65.8151 119.646 64.6297 119.225C63.2571 118.738 62.4442 117.891 59.3991 113.783C57.5459 111.286 56.5588 110.653 55.2927 111.155L54.7298 111.379L54.6234 114.744C54.5637 116.592 54.4379 118.32 54.3427 118.58C54.1185 119.189 53.5573 119.532 52.7831 119.532C51.9879 119.532 51.5105 119.205 51.2718 118.494C51.1379 118.094 51.0525 115.097 50.9831 108.43L50.8863 98.9347H38.9236C32.3447 98.9347 26.9125 98.9822 26.8512 99.0404C26.7899 99.0986 26.8367 99.8903 26.9544 100.802C27.0819 101.797 27.1657 104.045 27.1625 106.439C27.1593 110.253 27.1415 110.483 26.7335 111.912C26.5012 112.731 25.9722 114.145 25.5593 115.051C23.9577 118.565 23.5626 119.542 23.398 120.385C23.1142 121.848 22.7271 122.01 21.6368 121.124C20.6497 120.323 20.3223 119.617 20.3223 118.298C20.3223 116.973 20.7932 115.554 22.2981 112.335C23.8674 108.978 24.269 107.745 24.2722 106.286C24.2738 105.338 24.2029 104.949 23.9577 104.566C23.3674 103.638 22.1464 103.38 20.5158 103.84C18.8949 104.298 16.9352 106.495 16.1514 108.736C15.6369 110.211 15.574 111.31 15.8965 113.226C16.174 114.874 16.174 114.943 15.8901 115.241C15.7272 115.411 15.4353 115.551 15.2417 115.551C14.5111 115.551 12.7853 114.038 12.2869 112.958C12.1063 112.566 12.0321 111.892 12.0256 110.574C12.0176 108.93 12.0708 108.56 12.5401 107.068C13.1837 105.019 13.2014 104.546 12.6482 104.053C11.5143 103.042 8.49826 104.259 6.84183 106.394C5.59346 108.007 5.06444 110.068 5.34347 112.25C5.51605 113.609 5.83056 114.519 6.72571 116.261C7.61601 117.995 7.62408 118.514 6.76119 118.583C6.28539 118.621 6.0112 118.506 5.22895 117.946C3.1935 116.488 1.88707 114.108 1.53546 111.217C1.31611 109.42 1.16934 100.932 1.35482 100.814C1.73062 100.575 2.98866 100.704 3.62575 101.047C4.39026 101.457 4.67251 101.926 4.67574 102.792C4.67574 103.146 4.73541 103.468 4.80638 103.511C4.87735 103.552 5.25799 103.342 5.65314 103.045C7.55473 101.61 10.816 100.645 12.5337 101.008C13.5675 101.227 14.2562 101.684 14.982 102.635L15.5869 103.425L16.3014 102.959C16.6949 102.704 17.7046 102.177 18.5481 101.789C19.9481 101.145 20.1852 101.085 21.29 101.082C21.9545 101.08 22.9174 101.131 23.4271 101.195C24.3271 101.307 24.3545 101.301 24.3545 100.953C24.3545 100.756 24.2722 100.203 24.1706 99.7265L23.9867 98.8581L14.0498 98.8474C2.8177 98.8352 1.92416 98.7938 1.08869 98.2502C0.411284 97.8091 0 97.2057 0 96.6529V96.2547L24.5561 96.2532C38.0623 96.2532 49.4928 96.2088 49.9589 96.1552L50.8057 96.0587V93.1781C50.8057 89.2193 50.5896 88.3985 49.0928 86.6527C48.6944 86.1886 48.3977 85.7307 48.4315 85.6343C48.5444 85.3081 49.9283 85.3433 50.7912 85.6971C51.696 86.0661 52.854 87.1488 53.3686 88.1045C54.1298 89.5226 54.6621 92.394 54.6718 95.1444L54.6766 96.2547H86.6987L86.6503 93.5364C86.5697 88.9437 86.3471 88.011 84.9761 86.5286C84.2939 85.792 84.4036 85.4704 85.3536 85.4122C86.3406 85.351 87.1051 85.7277 88.168 86.7935C89.7196 88.3525 89.9551 89.1091 90.1357 93.1321C90.2051 94.6773 90.318 95.9959 90.3857 96.0602C90.4535 96.1245 98.034 96.221 107.229 96.2731C116.426 96.3252 124.077 96.3757 124.232 96.3879C124.737 96.4232 125.159 96.9791 125.159 97.6039C125.159 98.561 124.89 98.7617 123.524 98.8199C122.871 98.8489 122.174 98.9041 121.974 98.9439C121.619 99.0159 121.616 99.0312 121.859 99.5886C121.997 99.9026 122.33 100.422 122.6 100.74C122.869 101.06 123.156 101.543 123.237 101.812C123.447 102.503 123.427 117.774 123.218 118.494C122.929 119.48 122.003 119.796 120.884 119.292C120.289 119.024 120.058 118.581 119.948 117.496C119.908 117.091 119.834 116.721 119.782 116.673C119.732 116.624 119.234 116.949 118.674 117.393C116.656 119.001 114.445 119.609 111.89 119.258C110.068 119.009 108.485 118.255 107.173 117.009C105.395 115.321 104.837 113.981 104.837 111.405C104.837 109.413 105.037 108.508 105.811 107.013C106.285 106.099 106.766 105.465 107.552 104.716C109.381 102.976 111.243 102.145 114.369 101.673C116.111 101.411 116.703 101.445 119.066 101.941C119.572 102.048 120.032 102.094 120.085 102.044C120.189 101.944 119.709 99.4585 119.537 99.2058C119.471 99.1078 114.143 99.0143 104.774 98.9424L90.1132 98.8321L90.1954 100.999C90.2406 102.191 90.347 103.232 90.4309 103.312C90.5277 103.403 90.9406 103.186 91.5519 102.72C93.197 101.466 93.9325 101.235 96.2889 101.233C98.0018 101.232 98.4163 101.281 99.0388 101.555C101.336 102.563 102.274 104.534 102.279 108.351C102.282 111.515 101.95 112.823 99.7388 118.344C97.8243 123.119 97.6808 123.683 97.7872 125.987C97.8888 128.19 97.7405 128.433 96.6711 127.814ZM37.0382 119.137C33.7559 118.382 30.6786 115.367 29.9931 112.229C29.7205 110.978 29.877 108.376 30.3012 107.117C31.0431 104.913 32.7689 103.066 35.1204 101.959C35.1204 101.959 36.0281 101.441 36.664 101.232C37.5777 100.931 38.1401 100.897 39.1123 100.88C40.1974 100.86 41.8542 101.232 41.8542 101.232L43.0994 101.809C45.3638 102.861 47.2445 104.886 47.9219 107.001C48.2106 107.904 48.2461 108.353 48.1961 110.529C48.1961 110.529 48.2543 111.906 47.9219 112.828C47.7611 113.274 47.5557 114.096 47.5557 114.096C46.4203 116.18 44.9848 117.689 43.4139 118.448C41.6542 119.298 38.9946 119.586 37.0382 119.137ZM73.4279 119.16C70.6748 118.313 69.0425 116.63 69.0345 114.63C69.0312 113.609 69.2264 112.914 69.7054 112.25C70.6941 110.878 72.2844 110.897 73.2473 112.292C73.5634 112.748 73.5166 112.914 72.7925 113.921C72.4973 114.332 72.257 114.756 72.257 114.868C72.257 115.208 73.0699 116.006 73.7699 116.355C74.7908 116.863 76.694 116.82 77.9827 116.26C79.1182 115.765 79.5956 115.376 80.0149 114.6C80.9488 112.869 79.9875 111.964 75.5214 110.364C72.8296 109.399 71.5925 108.771 70.6296 107.881C69.3731 106.717 69.0167 104.988 69.7328 103.527C70.6409 101.676 73.0618 100.622 76.3698 100.641C78.7908 100.655 81.7439 101.411 82.6988 102.261C83.5391 103.011 82.8181 105.376 81.5714 105.953C80.8181 106.302 80.1875 106.192 79.5117 105.593C79.0666 105.198 79.0182 105.07 79.052 104.359C79.1053 103.266 78.8972 103.146 76.944 103.148C74.9844 103.148 74.3295 103.325 73.4505 104.096C71.928 105.428 72.7554 106.217 77.4279 107.892C81.2101 109.246 82.5133 110.134 83.4165 111.967C83.86 112.868 83.9036 113.081 83.8358 114.068C83.7407 115.465 83.3084 116.396 82.2681 117.439C80.8101 118.903 79.0053 119.532 76.2892 119.523C74.9634 119.52 74.3424 119.441 73.4279 119.16ZM114.537 115.554C115.945 115.136 117.013 114.324 118.016 112.904C119.121 111.344 119.626 109.817 119.858 107.328C119.977 106.068 120.045 105.583 119.822 105.322C119.661 105.135 119.35 105.065 118.8 104.907C116.281 104.181 112.34 105.189 110.363 107.068C109.116 108.252 108.5 109.58 108.418 111.26C108.356 112.499 108.381 112.615 108.897 113.56C109.985 115.554 112.061 116.287 114.537 115.554ZM41.58 115.479C42.8139 114.949 43.8784 113.894 44.5558 112.525C45.0187 111.59 45.03 111.517 44.9751 109.538C44.9267 107.817 44.8638 107.405 44.5574 106.815C43.8187 105.39 42.1671 104.224 40.5413 103.979C39.9897 103.895 39.8139 103.935 39.5333 104.201C38.8881 104.814 39.1913 105.653 40.3429 106.439C41.4171 107.171 41.6881 107.619 41.6816 108.649C41.672 110.157 40.7929 111.108 39.4059 111.11C38.1333 111.11 37.1559 110.497 36.5962 109.348C36.1882 108.511 36.2156 107.57 36.6946 106.053C36.9462 105.253 37.0414 104.717 36.9462 104.627C36.7172 104.41 35.5059 105.149 34.6188 106.048C33.3866 107.299 33.1447 107.955 33.1447 110.041C33.1447 111.725 33.1689 111.851 33.6753 112.828C34.2963 114.027 35.285 114.929 36.693 115.58C37.5865 115.993 37.7736 116.024 39.1123 115.972C40.2817 115.927 40.7623 115.831 41.58 115.479ZM61.3652 92.8335C59.4201 91.9912 58.7394 89.6527 60.0507 88.3143C61.4362 86.8992 64.1168 87.1014 65.1006 88.6941C65.4619 89.2791 65.5103 89.5088 65.4539 90.3449C65.3813 91.4414 64.8845 92.2362 64.0055 92.6681C63.3136 93.0081 61.9636 93.0923 61.3652 92.8335Z" fill="#B30807"/>
</svg>
