<svg width="78" height="78" viewBox="0 0 78 78" fill="none" xmlns="http://www.w3.org/2000/svg">
<path d="M40.2188 2.4375C48.6562 22.687 62.1562 31.1244 62.1562 46.3125C62.1562 52.1307 59.845 57.7106 55.7309 61.8247C51.6168 65.9387 46.0369 68.25 40.2188 68.25C34.4006 68.25 28.8207 65.9387 24.7066 61.8247C20.5925 57.7106 18.2813 52.1307 18.2812 46.3125C18.2813 31.1244 31.7813 22.687 40.2188 2.4375Z" fill="#FFCC3F"/>
<path d="M25.3865 40.2188C25.967 38.53 26.7014 36.8982 27.5803 35.3438" stroke="white" stroke-width="2" stroke-linecap="round" stroke-linejoin="round"/>
<path d="M35.3438 61.3884C32.9601 60.6118 30.7936 59.283 29.0209 57.5103C27.2482 55.7376 25.9194 53.5712 25.1428 51.1875" stroke="white" stroke-width="2" stroke-linecap="round" stroke-linejoin="round"/>
<path d="M58.5 15.8438C60.5026 15.5153 62.3872 14.6781 63.9734 13.4123C65.4359 12.0473 66.3975 9.89381 67.0312 6.09375C67.6406 9.75 68.5547 11.8828 69.9258 13.2539C71.2969 14.625 73.125 15.2344 75.5625 15.8438C73.125 16.4531 71.2969 17.0625 69.9258 18.4336C68.5547 19.8047 67.6406 21.9375 67.0312 25.5938C66.4438 22.0716 65.5688 19.9631 64.2854 18.5872C62.8985 17.1076 61.0265 16.4751 58.5 15.8438Z" fill="#EEB006"/>
<path d="M2.4375 66.4219C4.37594 66.115 6.19061 65.2744 7.67813 63.9941C8.94441 62.7083 9.79388 60.7096 10.3594 57.2812C10.9249 60.7084 11.7743 62.7083 13.0467 63.9941C14.5329 65.2728 16.3451 66.1134 18.2812 66.4219C15.5683 67.1068 13.6683 67.7917 12.3374 69.7052C11.2582 71.4897 10.5831 73.489 10.3594 75.5625C9.82922 72.3499 9.05044 70.3913 7.90603 69.1031C6.60928 67.6406 4.84331 67.0312 2.4375 66.4219Z" fill="#EEB006"/>
</svg>
