<svg width="44" height="32" viewBox="0 0 44 32" fill="none" xmlns="http://www.w3.org/2000/svg">
<path d="M34.8941 0H8.6613C3.88532 0 0 3.89776 0 8.68797V23.311C0 28.1021 3.88532 31.999 8.6613 31.999H34.8941C39.6701 31.999 43.5554 28.1012 43.5554 23.311V8.68797C43.5554 3.89776 39.6701 0 34.8941 0ZM41.7776 23.3119C41.7776 27.1226 38.6896 30.2221 34.8941 30.2221H8.6613C4.86576 30.2221 1.77777 27.1217 1.77777 23.3119V8.68797C1.77777 4.87821 4.86576 1.77777 8.6613 1.77777H34.8941C38.6896 1.77777 41.7776 4.87821 41.7776 8.68797V23.3119Z" fill="black"/>
<path d="M29.6532 15.6781L17.3377 8.46483C17.0639 8.30483 16.7235 8.30217 16.4471 8.46039C16.1706 8.61861 16 8.91283 16 9.23194V23.6577C16 23.9759 16.1706 24.271 16.4462 24.4292C16.5831 24.5074 16.736 24.5466 16.8888 24.5466C17.0444 24.5466 17.1991 24.5057 17.3377 24.4248L29.6532 17.2132C29.9252 17.0541 30.0932 16.7617 30.0932 16.4461C30.0932 16.1306 29.9261 15.8373 29.6532 15.6781ZM17.7777 22.1066V10.7822L27.4452 16.4452L17.7777 22.1066Z" fill="black"/>
</svg>
